<svg xmlns="http://www.w3.org/2000/svg" width="900" height="218" viewBox="0 0 900 218" role="img" aria-label="Tech stack">
  <rect x="0.5" y="0.5" width="899" height="217" rx="12" fill="#10151D" stroke="#30363D"/>
  <text x="24" y="54" font-family="ui-monospace,SFMono-Regular,Menlo,Consolas,'Liberation Mono',monospace" font-size="10.5" letter-spacing="1.5" fill="#4D8DFF">LANGUAGES</text>
<rect x="168" y="38" width="95" height="26" rx="13" fill="#161B22" stroke="#30363D"/>
<circle cx="182" cy="51" r="3.5" fill="#3178C6"/>
<text x="191" y="55.5" font-family="ui-monospace,SFMono-Regular,Menlo,Consolas,'Liberation Mono',monospace" font-size="11.5" fill="#E6EDF3">TypeScript</text>
<rect x="271" y="38" width="95" height="26" rx="13" fill="#161B22" stroke="#30363D"/>
<circle cx="285" cy="51" r="3.5" fill="#F1E05A"/>
<text x="294" y="55.5" font-family="ui-monospace,SFMono-Regular,Menlo,Consolas,'Liberation Mono',monospace" font-size="11.5" fill="#E6EDF3">JavaScript</text>
<rect x="374" y="38" width="82" height="26" rx="13" fill="#161B22" stroke="#30363D"/>
<circle cx="388" cy="51" r="3.5" fill="#AA6746"/>
<text x="397" y="55.5" font-family="ui-monospace,SFMono-Regular,Menlo,Consolas,'Liberation Mono',monospace" font-size="11.5" fill="#E6EDF3">Solidity</text>
<rect x="464" y="38" width="55" height="26" rx="13" fill="#161B22" stroke="#30363D"/>
<circle cx="478" cy="51" r="3.5" fill="#DEA584"/>
<text x="487" y="55.5" font-family="ui-monospace,SFMono-Regular,Menlo,Consolas,'Liberation Mono',monospace" font-size="11.5" fill="#E6EDF3">Rust</text>
<rect x="527" y="38" width="48" height="26" rx="13" fill="#161B22" stroke="#30363D"/>
<circle cx="541" cy="51" r="3.5" fill="#E38C00"/>
<text x="550" y="55.5" font-family="ui-monospace,SFMono-Regular,Menlo,Consolas,'Liberation Mono',monospace" font-size="11.5" fill="#E6EDF3">SQL</text>
<text x="24" y="100" font-family="ui-monospace,SFMono-Regular,Menlo,Consolas,'Liberation Mono',monospace" font-size="10.5" letter-spacing="1.5" fill="#4D8DFF">BACKEND / DATA</text>
<rect x="168" y="84" width="75" height="26" rx="13" fill="#161B22" stroke="#30363D"/>
<circle cx="182" cy="97" r="3.5" fill="#5FA04E"/>
<text x="191" y="101.5" font-family="ui-monospace,SFMono-Regular,Menlo,Consolas,'Liberation Mono',monospace" font-size="11.5" fill="#E6EDF3">Node.js</text>
<rect x="251" y="84" width="75" height="26" rx="13" fill="#161B22" stroke="#30363D"/>
<circle cx="265" cy="97" r="3.5" fill="#E10098"/>
<text x="274" y="101.5" font-family="ui-monospace,SFMono-Regular,Menlo,Consolas,'Liberation Mono',monospace" font-size="11.5" fill="#E6EDF3">GraphQL</text>
<rect x="334" y="84" width="68" height="26" rx="13" fill="#161B22" stroke="#30363D"/>
<circle cx="348" cy="97" r="3.5" fill="#DC382D"/>
<text x="357" y="101.5" font-family="ui-monospace,SFMono-Regular,Menlo,Consolas,'Liberation Mono',monospace" font-size="11.5" fill="#E6EDF3">BullMQ</text>
<rect x="410" y="84" width="95" height="26" rx="13" fill="#161B22" stroke="#30363D"/>
<circle cx="424" cy="97" r="3.5" fill="#336791"/>
<text x="433" y="101.5" font-family="ui-monospace,SFMono-Regular,Menlo,Consolas,'Liberation Mono',monospace" font-size="11.5" fill="#E6EDF3">PostgreSQL</text>
<rect x="513" y="84" width="62" height="26" rx="13" fill="#161B22" stroke="#30363D"/>
<circle cx="527" cy="97" r="3.5" fill="#DC382D"/>
<text x="536" y="101.5" font-family="ui-monospace,SFMono-Regular,Menlo,Consolas,'Liberation Mono',monospace" font-size="11.5" fill="#E6EDF3">Redis</text>
<rect x="583" y="84" width="68" height="26" rx="13" fill="#161B22" stroke="#30363D"/>
<circle cx="597" cy="97" r="3.5" fill="#4C51BF"/>
<text x="606" y="101.5" font-family="ui-monospace,SFMono-Regular,Menlo,Consolas,'Liberation Mono',monospace" font-size="11.5" fill="#E6EDF3">Prisma</text>
<rect x="659" y="84" width="75" height="26" rx="13" fill="#161B22" stroke="#30363D"/>
<circle cx="673" cy="97" r="3.5" fill="#47A248"/>
<text x="682" y="101.5" font-family="ui-monospace,SFMono-Regular,Menlo,Consolas,'Liberation Mono',monospace" font-size="11.5" fill="#E6EDF3">MongoDB</text>
<rect x="742" y="84" width="95" height="26" rx="13" fill="#161B22" stroke="#30363D"/>
<circle cx="756" cy="97" r="3.5" fill="#E6522C"/>
<text x="765" y="101.5" font-family="ui-monospace,SFMono-Regular,Menlo,Consolas,'Liberation Mono',monospace" font-size="11.5" fill="#E6EDF3">Prometheus</text>
<text x="24" y="146" font-family="ui-monospace,SFMono-Regular,Menlo,Consolas,'Liberation Mono',monospace" font-size="10.5" letter-spacing="1.5" fill="#4D8DFF">CHAIN</text>
<rect x="168" y="130" width="122" height="26" rx="13" fill="#161B22" stroke="#30363D"/>
<circle cx="182" cy="143" r="3.5" fill="#8B7CF6"/>
<text x="191" y="147.5" font-family="ui-monospace,SFMono-Regular,Menlo,Consolas,'Liberation Mono',monospace" font-size="11.5" fill="#E6EDF3">Ethereum / EVM</text>
<rect x="298" y="130" width="55" height="26" rx="13" fill="#161B22" stroke="#30363D"/>
<circle cx="312" cy="143" r="3.5" fill="#0052FF"/>
<text x="321" y="147.5" font-family="ui-monospace,SFMono-Regular,Menlo,Consolas,'Liberation Mono',monospace" font-size="11.5" fill="#E6EDF3">Base</text>
<rect x="361" y="130" width="88" height="26" rx="13" fill="#161B22" stroke="#30363D"/>
<circle cx="375" cy="143" r="3.5" fill="#5C6BC0"/>
<text x="384" y="147.5" font-family="ui-monospace,SFMono-Regular,Menlo,Consolas,'Liberation Mono',monospace" font-size="11.5" fill="#E6EDF3">Ethers.js</text>
<rect x="457" y="130" width="75" height="26" rx="13" fill="#161B22" stroke="#30363D"/>
<circle cx="471" cy="143" r="3.5" fill="#F0D91D"/>
<text x="480" y="147.5" font-family="ui-monospace,SFMono-Regular,Menlo,Consolas,'Liberation Mono',monospace" font-size="11.5" fill="#E6EDF3">Hardhat</text>
<rect x="540" y="130" width="75" height="26" rx="13" fill="#161B22" stroke="#30363D"/>
<circle cx="554" cy="143" r="3.5" fill="#FF6B35"/>
<text x="563" y="147.5" font-family="ui-monospace,SFMono-Regular,Menlo,Consolas,'Liberation Mono',monospace" font-size="11.5" fill="#E6EDF3">Foundry</text>
<rect x="623" y="130" width="82" height="26" rx="13" fill="#161B22" stroke="#30363D"/>
<circle cx="637" cy="143" r="3.5" fill="#A371F7"/>
<text x="646" y="147.5" font-family="ui-monospace,SFMono-Regular,Menlo,Consolas,'Liberation Mono',monospace" font-size="11.5" fill="#E6EDF3">ERC-4337</text>
<text x="24" y="192" font-family="ui-monospace,SFMono-Regular,Menlo,Consolas,'Liberation Mono',monospace" font-size="10.5" letter-spacing="1.5" fill="#4D8DFF">FRONTEND / SHIP</text>
<rect x="168" y="176" width="75" height="26" rx="13" fill="#161B22" stroke="#30363D"/>
<circle cx="182" cy="189" r="3.5" fill="#9CA3AF"/>
<text x="191" y="193.5" font-family="ui-monospace,SFMono-Regular,Menlo,Consolas,'Liberation Mono',monospace" font-size="11.5" fill="#E6EDF3">Next.js</text>
<rect x="251" y="176" width="62" height="26" rx="13" fill="#161B22" stroke="#30363D"/>
<circle cx="265" cy="189" r="3.5" fill="#61DAFB"/>
<text x="274" y="193.5" font-family="ui-monospace,SFMono-Regular,Menlo,Consolas,'Liberation Mono',monospace" font-size="11.5" fill="#E6EDF3">React</text>
<rect x="321" y="176" width="68" height="26" rx="13" fill="#161B22" stroke="#30363D"/>
<circle cx="335" cy="189" r="3.5" fill="#9CA3AF"/>
<text x="344" y="193.5" font-family="ui-monospace,SFMono-Regular,Menlo,Consolas,'Liberation Mono',monospace" font-size="11.5" fill="#E6EDF3">Vercel</text>
<rect x="397" y="176" width="122" height="26" rx="13" fill="#161B22" stroke="#30363D"/>
<circle cx="411" cy="189" r="3.5" fill="#2088FF"/>
<text x="420" y="193.5" font-family="ui-monospace,SFMono-Regular,Menlo,Consolas,'Liberation Mono',monospace" font-size="11.5" fill="#E6EDF3">GitHub Actions</text>

</svg>